<?xml version="1.0" encoding="UTF-8"?>
<svg id="Ebene_2" data-name="Ebene 2" xmlns="http://www.w3.org/2000/svg" viewBox="0 0 173.47 50.34">
  <defs>
    <style>
      .cls-1 {
        fill: #0660ab;
      }

      .cls-2 {
        fill: #dedc00;
      }
    </style>
  </defs>
  <g id="Ebene_1-2" data-name="Ebene 1">
    <g>
      <path class="cls-2" d="M2.56,40.72l-.33-.08c-.83-.25-1.41-.99-1.41-1.99v-2.73c0-1.16.91-2.07,2.07-2.07h3.64c1.16,0,2.07.91,2.07,2.07v4.13c0,2.4-.5,4.55-1.41,6.12-.33.58-.66,1.07-.99,1.49-1.41,1.74-3.06,2.65-4.3,2.65-.99,0-1.9-.66-1.9-1.98,0-.99.66-1.57,1.32-2.15.33-.25.83-.75,1.32-1.24.58-.74,1.16-1.65,1.16-2.81,0-.66-.33-1.16-1.24-1.41ZM12.46,40.72l-.33-.08c-.83-.25-1.41-.99-1.41-1.99v-2.73c0-1.16.91-2.07,2.07-2.07h3.64c1.16,0,2.07.91,2.07,2.07v4.13c0,2.4-.5,4.55-1.41,6.12-.33.58-.66,1.07-.99,1.49-1.41,1.74-3.06,2.65-4.3,2.65-.99,0-1.9-.66-1.9-1.98,0-.99.66-1.57,1.32-2.15.33-.25.83-.75,1.32-1.24.58-.74,1.16-1.65,1.16-2.81,0-.66-.33-1.16-1.24-1.41Z"/>
      <path class="cls-1" d="M74.83,16.14c0,2.94-.48,5.58-2.46,7.5l-.48.48c-.36.3-.48.6-.48.9s.12.6.48.96l.48.48c2.04,1.86,2.46,4.5,2.46,7.44v14.1c0,1.08-.78,1.92-1.86,1.92h-3.06c-1.08,0-1.98-.84-1.98-1.92v-14.58c0-3.54-1.8-5.16-4.02-5.16h-2.64c-.78,0-1.32.6-1.32,1.38v18.36c0,1.08-.84,1.92-1.92,1.92h-3.06c-1.08,0-1.92-.84-1.92-1.92V2.34c0-1.08.84-1.92,1.92-1.92h3.06c1.08,0,1.92.84,1.92,1.92v18.12c0,.84.54,1.32,1.38,1.32h2.58c2.16,0,4.02-1.38,4.02-5.1V2.34c0-1.08.9-1.92,1.98-1.92h3.06c1.08,0,1.86.84,1.86,1.92v13.8Z"/>
      <path class="cls-1" d="M81.13,11.52c0-7.74,4.92-11.52,10.92-11.52s10.86,3.78,10.86,11.52v36.48c0,1.08-.84,1.92-1.92,1.92h-3c-1.08,0-1.98-.84-1.98-1.92v-16.68c0-.72-.6-1.32-1.38-1.32h-5.22c-.9,0-1.38.72-1.38,1.32v16.68c0,1.08-.84,1.92-1.92,1.92h-3.06c-1.08,0-1.92-.84-1.92-1.92V11.52ZM96.01,12.24c0-4.02-1.38-5.76-3.96-5.76s-4.02,1.62-4.02,5.76v10.14c0,.6.48,1.32,1.38,1.32h5.22c.78,0,1.38-.6,1.38-1.32v-10.14Z"/>
      <path class="cls-1" d="M138.61,11.64c-.06-3.78-1.8-5.16-3.9-5.16-2.28,0-3.9,1.56-3.9,5.16v36.36c0,1.08-.84,1.92-1.92,1.92h-3c-1.08,0-1.98-.84-1.98-1.92V11.64c0-3.78-1.8-5.16-3.9-5.16-2.28,0-3.9,1.56-3.9,5.16v36.36c0,1.08-.84,1.92-1.92,1.92h-3.06c-1.08,0-1.92-.84-1.92-1.92V3.12c0-2.1,1.2-2.94,2.52-2.94.72,0,1.32.3,1.92.66l.3.18c.48.24.84.42,1.38.42.66,0,1.62-.48,2.64-.84.96-.36,1.92-.48,2.88-.48,1.44,0,2.82.3,4.08.96,1.02.48,1.92.96,2.7.96.9,0,1.92-.6,3.24-1.14,1.44-.6,2.94-.84,4.38-.84,4.68,0,10.26,2.94,10.26,11.04v36.9c0,1.08-.84,1.92-1.92,1.92h-3.06c-1.08,0-1.92-.84-1.92-1.92V11.64Z"/>
      <path class="cls-1" d="M153.61,49.92c-1.08,0-1.92-.84-1.92-1.92V2.34c0-1.08.84-1.92,1.92-1.92h8.94c5.76,0,10.92,3.42,10.92,11.52v7.26c0,7.68-4.92,11.46-10.92,11.46h-2.58c-.84,0-1.38.6-1.38,1.38v15.96c0,1.08-.84,1.92-1.92,1.92h-3.06ZM166.57,11.34c-.18-3.18-2.16-4.44-4.14-4.44h-2.4c-.9,0-1.44.48-1.44,1.32v14.7c0,.84.54,1.32,1.38,1.32h2.46c2.04,0,4.14-1.44,4.14-5.4v-7.5Z"/>
      <path class="cls-1" d="M40.27,23.52l-4.32-2.34c-3.24-1.74-3.96-2.82-3.96-6.54v-2.1c0-3.96,1.02-6.06,3.96-6.06,2.22,0,3.9,1.5,3.9,5.04v2.52c0,1.08.84,1.92,1.98,1.92h2.88c1.14,0,2.04-.84,2.04-1.92v-2.58c0-7.32-4.38-11.46-10.74-11.46s-10.86,4.56-10.86,11.16v5.04c0,4.86,1.74,7.92,6.6,10.68l4.98,2.76c2.22,1.26,3.42,2.46,3.42,6.18v3c0,3.54-1.8,5.04-4.14,5.04-3,0-3.96-2.46-3.96-4.98v-3.06c0-1.08-.96-1.92-2.04-1.92h-2.88c-1.08,0-1.98.84-1.98,1.92v3.06c0,.42.02.83.05,1.23h0s-.05,10.23-.05,10.23h10.91s0,0,.01,0c5.7,0,10.92-3.6,10.92-11.4v-4.02c0-6.84-2.28-9-6.72-11.4Z"/>
    </g>
  </g>
</svg>