<?xml version="1.0" encoding="UTF-8"?>
<svg id="Ebene_2" data-name="Ebene 2" xmlns="http://www.w3.org/2000/svg" viewBox="0 0 195.44 36.3">
  <defs>
    <style>
      .cls-1 {
        fill: #fff;
      }
    </style>
  </defs>
  <g id="Ebene_1-2" data-name="Ebene 1">
    <g>
      <path class="cls-1" d="M37.79,15.05c-4-1.4-7.55-2.5-7.55-4.95,0-2,1.85-3.55,5.1-3.55,4.8,0,7,2.75,7.05,6.45h8.55v-.1c0-7.55-5.55-12.9-15.7-12.9-8.75,0-14.2,4.6-14.2,11.35,0,5.8,6.05,7.9,11.25,9.65,3.95,1.3,7.4,2.5,7.4,4.95,0,2.2-2.1,3.8-5.6,3.8-5.1,0-7.05-2.6-7.05-6.3v-.55h-8.9v.55c0,7.85,5.5,12.85,15.65,12.85,8.1,0,15-4.35,15-11.65,0-5.7-5.9-7.85-11-9.6Z"/>
      <path class="cls-1" d="M101.39.65l-20.09,34.89-7.26-20.74L88.44.65h-10.7l-15.4,15,3.35-15h-9.05l-7.45,35h9.05l1.6-8.1,7-6.45,4.6,14.55h19.5l3.8-7.1h12.65l.85,7.1h9.15L112.09.65h-10.7ZM98.14,22.3l7.1-13.35,1.45,13.35h-8.55Z"/>
      <polygon class="cls-1" points="150.84 .65 145.29 12.2 139.74 23.8 139.19 12.2 138.49 .65 126.19 .65 118.79 35.65 126.74 35.65 130.34 18.15 131.99 10 132.44 18.15 133.44 35.65 141.39 35.65 149.84 18.15 153.69 10.1 151.89 18.15 148.09 35.65 156.29 35.65 163.74 .65 150.84 .65"/>
      <path class="cls-1" d="M183.94.65h-17.05l-7.45,35h9.15l2.7-12.85h10.7c6.9,0,11.85-3.7,13.15-9.95.2-.95.3-1.8.3-2.65,0-5.8-4.35-9.55-11.5-9.55ZM186.24,12.2c-.6,2.7-2.35,4.05-4.95,4.05h-8.6l1.9-8.8h7.45c2.85,0,4.35,1.25,4.35,3.5,0,.4-.05.8-.15,1.25Z"/>
      <rect class="cls-1" y="22.91" width="13.39" height="13.39"/>
    </g>
  </g>
</svg>