<?xml version="1.0" encoding="UTF-8"?>
<svg id="Ebene_2" data-name="Ebene 2" xmlns="http://www.w3.org/2000/svg" viewBox="0 0 134.93 53.05">
  <defs>
    <style>
      .cls-1 {
        fill: #0660ab;
      }

      .cls-2 {
        fill: #dedc00;
      }
    </style>
  </defs>
  <g id="Ebene_1-2" data-name="Ebene 1">
    <g>
      <path class="cls-2" d="M2.56,43.46l-.33-.08c-.83-.25-1.41-.99-1.41-1.99v-2.73c0-1.16.91-2.07,2.07-2.07h3.64c1.16,0,2.07.91,2.07,2.07v4.13c0,2.4-.5,4.55-1.41,6.12-.33.58-.66,1.07-.99,1.49-1.41,1.74-3.06,2.65-4.3,2.65-.99,0-1.9-.66-1.9-1.98,0-.99.66-1.57,1.32-2.15.33-.25.83-.75,1.32-1.24.58-.74,1.16-1.65,1.16-2.81,0-.66-.33-1.16-1.24-1.41ZM12.46,43.46l-.33-.08c-.83-.25-1.41-.99-1.41-1.99v-2.73c0-1.16.91-2.07,2.07-2.07h3.64c1.16,0,2.07.91,2.07,2.07v4.13c0,2.4-.5,4.55-1.41,6.12-.33.58-.66,1.07-.99,1.49-1.41,1.74-3.06,2.65-4.3,2.65-.99,0-1.9-.66-1.9-1.98,0-.99.66-1.57,1.32-2.15.33-.25.83-.75,1.32-1.24.58-.74,1.16-1.65,1.16-2.81,0-.66-.33-1.16-1.24-1.41Z"/>
      <g>
        <path class="cls-1" d="M53.93,20.6c-4.85,0-8.9,3.2-8.9,9.45v13.55c0,6.45,4.1,9.45,8.9,9.45s8.8-3.2,8.8-9.3v-.35c0-.9-.7-1.6-1.6-1.6h-2.4c-.9,0-1.6.7-1.6,1.6v.1c0,3-1.3,4.3-3.2,4.3s-3.3-1.35-3.3-4.3v-4.45c0-.65.45-1.1,1.15-1.1h9.05c1.1,0,1.9-.95,1.9-1.9v-6.1c0-6.1-3.95-9.35-8.8-9.35ZM57.13,31.9c0,1-.65,1.15-1.4,1.15h-3.95c-.55,0-1.15-.2-1.15-1.1v-1.75c0-3.1,1.45-4.3,3.3-4.3,2.1,0,3.2,1.55,3.2,4.5v1.5Z"/>
        <rect class="cls-1" x="68.03" y="11.45" width="5.6" height="41.25" rx="1.6" ry="1.6"/>
        <path class="cls-1" d="M87.93,20.6c-4.85,0-8.9,3.2-8.9,9.45v13.55c0,6.45,4.1,9.45,8.9,9.45s8.8-3.2,8.8-9.3v-.35c0-.9-.7-1.6-1.6-1.6h-2.4c-.9,0-1.6.7-1.6,1.6v.1c0,3-1.3,4.3-3.2,4.3s-3.3-1.35-3.3-4.3v-4.45c0-.65.45-1.1,1.15-1.1h9.05c1.1,0,1.9-.95,1.9-1.9v-6.1c0-6.1-3.95-9.35-8.8-9.35ZM91.13,31.9c0,1-.65,1.15-1.4,1.15h-3.95c-.55,0-1.15-.2-1.15-1.1v-1.75c0-3.1,1.45-4.3,3.3-4.3,2.1,0,3.2,1.55,3.2,4.5v1.5Z"/>
        <path class="cls-1" d="M111.68,20.85c-1.1,0-1.8.2-2.65.5-1.35.5-1.7.75-2.35.75-.35,0-.8-.15-1.1-.4l-.2-.15c-.45-.35-.95-.65-1.6-.65-1.1,0-1.9.75-1.9,1.95v28.25c0,.9.7,1.6,1.6,1.6h2.15c1.5,0,1.85-.85,1.85-1.6v-20.4c0-3.2.85-3.95,3.5-3.95h.5c.9,0,1.8-.6,1.8-1.6v-2.7c0-.9-.7-1.6-1.6-1.6Z"/>
        <path class="cls-1" d="M126.07,20.6c-4.85,0-8.85,3.1-8.85,9.45v13.55c0,6.3,4,9.45,8.8,9.45s8.9-3.15,8.9-9.45v-13.55c0-6.35-4-9.45-8.85-9.45ZM129.32,42.8c0,3.5-1,4.95-3.2,4.95s-3.3-1.45-3.3-4.95v-11.95c0-3.4,1.05-4.95,3.25-4.95s3.25,1.55,3.25,4.95v11.95Z"/>
        <path class="cls-1" d="M79.64,22.61h.64c.36,0,.62-.25.62-.59v-2.94c0-.25-.03-.67-.03-.78,0-.28.06-.42.14-.53.08-.11.22-.2.42-.2.17,0,.28.03.36.06.48.14,1.09.53,2.21.53,1.23,0,2.41-.5,3.17-1.43.73-.87,1.15-2.1,1.15-3.81v-7.82c0-3-1.57-5.1-4.37-5.1-.64,0-1.34.22-1.85.42-.34.11-.76.36-.98.36-.2,0-.31-.06-.48-.22l-.06-.06c-.22-.2-.45-.31-.73-.31-.53,0-.84.36-.84.78v21.04c0,.34.28.59.62.59ZM80.9,5.15c0-1.18.22-1.88.62-2.41.48-.64,1.2-.95,2.19-.95,1.62,0,2.74,1.09,2.74,3.5v7.42c0,1.26-.25,2.1-.67,2.69-.45.62-1.2.95-1.96.95-2.02,0-2.91-1.18-2.91-3.39v-7.82Z"/>
        <path class="cls-1" d="M97.29.03h-.22c-.73,0-1.71.25-2.21.45-.34.11-.76.31-.98.31-.2,0-.31-.06-.48-.22l-.06-.06c-.22-.2-.45-.34-.73-.34-.53,0-.84.36-.84.78v16.42c0,.34.31.62.67.62h.53c.39,0,.67-.28.67-.62V5.52c0-2.24.48-3.67,3.11-3.67h.56c.36,0,.67-.2.67-.56v-.62c0-.42-.31-.64-.7-.64Z"/>
        <path class="cls-1" d="M109.67,13.14v-.14c0-.31-.28-.56-.59-.56h-.7c-.31,0-.59.25-.59.56v.11c0,2.05-.95,3.28-2.77,3.28s-2.77-1.23-2.77-3.78v-2.38c0-.36.22-.56.59-.56h6.25c.28,0,.59-.28.59-.59v-3.87c0-3.47-1.82-5.21-4.65-5.21s-4.65,1.82-4.65,5.18v7.84c0,3.11,1.65,5.15,4.65,5.15s4.65-1.57,4.65-5.04ZM102.25,5.55c0-2.55.98-3.75,2.77-3.75,1.63,0,2.77,1.06,2.77,3.7v1.85c0,.39-.25.59-.62.59h-4.34c-.39,0-.59-.14-.59-.56v-1.82Z"/>
        <path class="cls-1" d="M122.28,13.53v-.14c0-2.27-1.01-3.36-3.25-4.48l-1.79-.87c-1.34-.64-2.19-1.4-2.19-2.94v-.45c0-1.68,1.06-2.86,2.69-2.86,1.82,0,2.63,1.4,2.63,2.97v.39c0,.34.28.59.59.59h.7c.36,0,.62-.25.62-.59v-.39c0-2.72-1.57-4.76-4.54-4.76-2.61,0-4.57,1.79-4.57,4.65v.59c0,2.27.9,3.31,3.14,4.43l1.9.95c1.34.67,2.19,1.32,2.19,2.86v.08c0,.98-.67,2.83-2.66,2.83s-2.66-1.68-2.66-2.97v-.39c0-.34-.28-.59-.59-.59h-.7c-.34,0-.62.25-.62.59v.39c0,2.86,1.79,4.76,4.57,4.76,3.05,0,4.54-2.35,4.54-4.65Z"/>
        <path class="cls-1" d="M130.38,18.18c3.05,0,4.54-2.35,4.54-4.65v-.14c0-2.27-1.01-3.36-3.25-4.48l-1.79-.87c-1.34-.64-2.19-1.4-2.19-2.94v-.45c0-1.68,1.06-2.86,2.69-2.86,1.82,0,2.63,1.4,2.63,2.97v.39c0,.34.28.59.59.59h.7c.36,0,.62-.25.62-.59v-.39c0-2.72-1.57-4.76-4.54-4.76-2.61,0-4.57,1.79-4.57,4.65v.59c0,2.27.9,3.31,3.14,4.43l1.9.95c1.34.67,2.19,1.32,2.19,2.86v.08c0,.98-.67,2.83-2.66,2.83s-2.66-1.68-2.66-2.97v-.39c0-.34-.28-.59-.59-.59h-.7c-.34,0-.62.25-.62.59v.39c0,2.86,1.79,4.76,4.57,4.76Z"/>
        <path class="cls-1" d="M31.48,20.6c-4.85,0-8.85,3.1-8.85,9.45v23h8.68,0c.08,0,.15,0,.23,0,4.9,0,8.8-3.2,8.8-9.3v-.65c0-.9-.7-1.6-1.6-1.6h-2.4c-.9,0-1.6.7-1.6,1.6v.35c0,3-1.3,4.3-3.2,4.3-2.3,0-3.3-1.45-3.3-4.95v-11.95c0-3.4,1.05-4.95,3.25-4.95s3.25,1.9,3.25,4.1v.15c0,.9.7,1.6,1.6,1.6h2.4c.9,0,1.6-.7,1.6-1.6v-.45c0-5.75-3.95-9.1-8.85-9.1Z"/>
      </g>
    </g>
  </g>
</svg>