<?xml version="1.0" encoding="UTF-8"?>
<svg id="Ebene_2" data-name="Ebene 2" xmlns="http://www.w3.org/2000/svg" viewBox="0 0 134.37 41.6">
  <defs>
    <style>
      .cls-1 {
        fill: #1d1d1b;
      }

      .cls-2 {
        fill: #0660ab;
      }

      .cls-3 {
        fill: #dedc00;
      }
    </style>
  </defs>
  <g id="Ebene_1-2" data-name="Ebene 1">
    <g>
      <path class="cls-2" d="M31.3,9.15c-4.85,0-8.9,3.2-8.9,9.45v13.55c0,6.45,4.1,9.45,8.9,9.45s8.8-3.2,8.8-9.3v-.35c0-.9-.7-1.6-1.6-1.6h-2.4c-.9,0-1.6.7-1.6,1.6v.1c0,3-1.3,4.3-3.2,4.3s-3.3-1.35-3.3-4.3v-4.45c0-.65.45-1.1,1.15-1.1h9.05c1.1,0,1.9-.95,1.9-1.9v-6.1c0-6.1-3.95-9.35-8.8-9.35ZM34.5,20.45c0,1-.65,1.15-1.4,1.15h-3.95c-.55,0-1.15-.2-1.15-1.1v-1.75c0-3.1,1.45-4.3,3.3-4.3,2.1,0,3.2,1.55,3.2,4.5v1.5Z"/>
      <rect class="cls-2" x="45.4" width="5.6" height="41.25" rx="1.6" ry="1.6"/>
      <path class="cls-2" d="M89.05,9.4c-1.1,0-1.8.2-2.65.5-1.35.5-1.7.75-2.35.75-.35,0-.8-.15-1.1-.4l-.2-.15c-.45-.35-.95-.65-1.6-.65-1.1,0-1.9.75-1.9,1.95v28.25c0,.9.7,1.6,1.6,1.6h2.15c1.5,0,1.85-.85,1.85-1.6v-20.4c0-3.2.85-3.95,3.5-3.95h.5c.9,0,1.8-.6,1.8-1.6v-2.7c0-.9-.7-1.6-1.6-1.6Z"/>
      <path class="cls-2" d="M8.85,9.15C4,9.15,0,12.25,0,18.6v23h8.68,0c.08,0,.15,0,.23,0,4.9,0,8.8-3.2,8.8-9.3v-.65c0-.9-.7-1.6-1.6-1.6h-2.4c-.9,0-1.6.7-1.6,1.6v.35c0,3-1.3,4.3-3.2,4.3-2.3,0-3.3-1.45-3.3-4.95v-11.95c0-3.4,1.05-4.95,3.25-4.95s3.25,1.9,3.25,4.1v.15c0,.9.7,1.6,1.6,1.6h2.4c.9,0,1.6-.7,1.6-1.6v-.45c0-5.75-3.95-9.1-8.85-9.1Z"/>
      <path class="cls-2" d="M103.45,9.15c-4.85,0-8.85,3.1-8.85,9.45v13.55c0,6.3,4,9.45,8.8,9.45s8.9-3.15,8.9-9.45v-13.55c0-.11-.01-.21-.01-.31v-9.12M106.7,31.35c0,3.5-1,4.95-3.2,4.95s-3.3-1.45-3.3-4.95v-11.95c0-3.4,1.05-4.95,3.25-4.95s3.25,1.55,3.25,4.95v11.95Z"/>
      <path class="cls-2" d="M63.14,26.5h9.05c1.1,0,1.9-.95,1.9-1.9v-6.1c0-5.95-3.76-9.18-8.45-9.34h.01s-9.26-.01-9.26-.01v9.14c.01.11,0,.2,0,.31v13.55c0,6.45,4.1,9.45,8.9,9.45s8.8-3.2,8.8-9.3v-.35c0-.9-.7-1.6-1.6-1.6h-2.4c-.9,0-1.6.7-1.6,1.6v.1c0,3-1.3,4.3-3.2,4.3s-3.3-1.35-3.3-4.3v-4.45c0-.65.45-1.1,1.15-1.1ZM68.49,18.95v1.5c0,1-.65,1.15-1.4,1.15h-3.95c-.55,0-1.15-.2-1.15-1.1v-1.75c0-3.1,1.45-4.3,3.3-4.3,2.1,0,3.2,1.55,3.2,4.5Z"/>
      <g>
        <path class="cls-1" d="M56.38.05h5.1c1.29,0,1.62.04,2.04.25.67.33.92.94.92,2.2s-.23,1.93-.78,2.27c-.39.24-.84.31-2,.31h-3.26v1.64h-2.02V.05ZM61.34,3.46c.83,0,1.07-.18,1.07-.81,0-.8-.2-.98-1.07-.98h-2.95v1.79h2.95Z"/>
        <path class="cls-1" d="M68.25.05h5.75c1.18,0,1.7.1,2.08.42.39.31.57.88.57,1.78,0,1.24-.3,1.73-1.15,1.92.83.14,1.08.49,1.06,1.5v1.05h-2.06v-.83c-.01-.72-.21-.87-1.12-.85h-3.11v1.68h-2.02V.05ZM73.43,3.41c.98,0,1.17-.12,1.17-.78,0-.43-.04-.61-.17-.75-.15-.16-.32-.19-.93-.19h-3.24v1.72h3.17Z"/>
        <path class="cls-1" d="M88.04.05v1.51h-5.39v1.15h5.08v1.32h-5.08v1.18h5.46v1.51h-7.46V.05h7.39Z"/>
        <path class="cls-1" d="M93.9,4.59c.02.46.07.57.31.66.15.06.72.1,1.36.1,2.35,0,2.63-.07,2.63-.62,0-.27-.13-.47-.34-.54q-.22-.07-1.27-.08h-1.84c-1.23,0-1.74-.07-2.17-.29-.48-.25-.7-.78-.7-1.69,0-1.2.34-1.71,1.3-1.94.54-.14,1.32-.19,2.78-.19,2.34,0,2.88.06,3.36.37.46.31.61.72.61,1.72h-1.98c0-.58-.2-.66-1.51-.66-.65,0-1.52.02-1.84.04-.54.04-.72.18-.72.56,0,.28.14.46.43.53.12.03.16.04.82.05h1.89c.18,0,1.08.03,1.42.05,1.27.06,1.77.62,1.77,1.96,0,1.23-.36,1.77-1.34,1.98-.5.11-1.49.17-2.94.17-2.31,0-2.82-.05-3.41-.35-.41-.2-.62-.71-.62-1.5,0-.06,0-.19.01-.33h1.99Z"/>
        <path class="cls-1" d="M106.02,4.59c.02.46.07.57.31.66.15.06.72.1,1.36.1,2.35,0,2.63-.07,2.63-.62,0-.27-.13-.47-.34-.54q-.22-.07-1.27-.08h-1.84c-1.23,0-1.74-.07-2.17-.29-.48-.25-.7-.78-.7-1.69,0-1.2.34-1.71,1.3-1.94.54-.14,1.32-.19,2.78-.19,2.34,0,2.88.06,3.36.37.46.31.61.72.61,1.72h-1.98c0-.58-.2-.66-1.51-.66-.65,0-1.52.02-1.84.04-.54.04-.72.18-.72.56,0,.28.14.46.43.53.12.03.16.04.82.05h1.89c.18,0,1.08.03,1.42.05,1.27.06,1.77.62,1.77,1.96,0,1.23-.36,1.77-1.34,1.98-.5.11-1.49.17-2.94.17-2.31,0-2.82-.05-3.41-.35-.41-.2-.62-.71-.62-1.5,0-.06,0-.19.01-.33h1.99Z"/>
      </g>
      <path class="cls-3" d="M118.44,6.87l-.33-.08c-.83-.25-1.41-.99-1.41-1.99v-2.73c0-1.16.91-2.07,2.07-2.07h3.64c1.16,0,2.07.91,2.07,2.07v4.13c0,2.4-.5,4.55-1.41,6.12-.33.58-.66,1.07-.99,1.49-1.41,1.74-3.06,2.65-4.3,2.65-.99,0-1.9-.66-1.9-1.98,0-.99.66-1.57,1.32-2.15.33-.25.83-.75,1.32-1.24.58-.74,1.16-1.65,1.16-2.81,0-.66-.33-1.16-1.24-1.41ZM128.34,6.87l-.33-.08c-.83-.25-1.41-.99-1.41-1.99v-2.73c0-1.16.91-2.07,2.07-2.07h3.64c1.16,0,2.07.91,2.07,2.07v4.13c0,2.4-.5,4.55-1.41,6.12-.33.58-.66,1.07-.99,1.49-1.41,1.74-3.06,2.65-4.3,2.65-.99,0-1.9-.66-1.9-1.98,0-.99.66-1.57,1.32-2.15.33-.25.83-.75,1.32-1.24.58-.74,1.16-1.65,1.16-2.81,0-.66-.33-1.16-1.24-1.41Z"/>
    </g>
  </g>
</svg>