<?xml version="1.0" encoding="UTF-8"?>
<svg id="Ebene_2" data-name="Ebene 2" xmlns="http://www.w3.org/2000/svg" viewBox="0 0 187.83 36.3">
  <defs>
    <style>
      .cls-1 {
        fill: #0693e3;
      }

      .cls-2 {
        fill: #005fab;
      }
    </style>
  </defs>
  <g id="Ebene_1-2" data-name="Ebene 1">
    <g>
      <path class="cls-2" d="M0,23.45v-.55h8.9v.55c0,3.7,1.95,6.3,7.05,6.3,3.5,0,5.6-1.6,5.6-3.8,0-2.45-3.45-3.65-7.4-4.95-5.2-1.75-11.25-3.85-11.25-9.65C2.9,4.6,8.35,0,17.1,0c10.15,0,15.7,5.35,15.7,12.9v.1h-8.55c-.05-3.7-2.25-6.45-7.05-6.45-3.25,0-5.1,1.55-5.1,3.55,0,2.45,3.55,3.55,7.55,4.95,5.1,1.75,11,3.9,11,9.6,0,7.3-6.9,11.65-15,11.65-10.15,0-15.65-5-15.65-12.85Z"/>
      <path class="cls-2" d="M38.5.65h9.05l-3.35,15L59.6.65h10.7l-14.4,14.15,7.3,20.85h-9.9l-4.6-14.55-7,6.45-1.6,8.1h-9.05L38.5.65Z"/>
      <path class="cls-2" d="M83.25.65h10.7l5.3,35h-9.15l-.85-7.1h-12.65l-3.8,7.1h-9.7L83.25.65ZM80,22.3h8.55l-1.45-13.35-7.1,13.35Z"/>
      <path class="cls-2" d="M108.05.65h12.3l.7,11.55.55,11.6,5.55-11.6,5.55-11.55h12.9l-7.45,35h-8.2l3.8-17.5,1.8-8.05-3.85,8.05-8.45,17.5h-7.95l-1-17.5-.45-8.15-1.65,8.15-3.6,17.5h-7.95L108.05.65Z"/>
      <path class="cls-2" d="M187.01,3.09c1.31-.5.97-2.44-.43-2.44h-37.82l-7.45,35h9.15l2.7-12.85h10.7c6.9,0,11.85-3.7,13.15-9.95.12-.58.11-1.14.24-1.65.62-2.33,3.32-5.63,9.76-8.11ZM168.1,12.2c-.6,2.7-2.35,4.05-4.95,4.05h-8.6l1.9-8.8h7.45c2.85,0,4.35,1.25,4.35,3.5,0,.4-.05.8-.15,1.25Z"/>
      <polygon class="cls-1" points="155.37 26.09 153.51 35.65 163.54 35.65 165.37 26.09 155.37 26.09"/>
    </g>
  </g>
</svg>