<?xml version="1.0" encoding="utf-8"?>
<!-- Generator: Adobe Illustrator 26.0.2, SVG Export Plug-In . SVG Version: 6.00 Build 0)  -->
<svg version="1.1" xmlns="http://www.w3.org/2000/svg" xmlns:xlink="http://www.w3.org/1999/xlink" x="0px" y="0px"
	 viewBox="0 0 368.5 85" style="enable-background:new 0 0 368.5 85;" xml:space="preserve">
<style type="text/css">
	.st0{fill:#FFFFFF;}
	.st1{fill:#878787;}
	.st2{fill-rule:evenodd;clip-rule:evenodd;}
	.st3{fill-rule:evenodd;clip-rule:evenodd;fill:#E4003C;}
</style>
<g id="bg">
	<rect y="0" class="st0" width="368.5" height="85"/>
</g>
<g id="logo_font_normal">
	<g>
		<path class="st1" d="M184.1,65.5l-1.6,9.1c0,0.2-0.1,0.4-0.4,0.4h-1.8c-0.2,0-0.3-0.2-0.2-0.4l0.8-4.7h-4.4l-0.8,4.7
			c-0.1,0.3-0.2,0.4-0.4,0.4h-1.8c-0.2,0-0.3-0.1-0.3-0.4l1.6-9.1c0.5-3.2,2.3-3.8,4.7-3.8h1.2c2.1,0,3.5,0.8,3.5,2.8
			C184.2,64.9,184.2,65.2,184.1,65.5z M180.4,63.9h-1.2c-1.2,0-1.7,0.4-1.9,1.6l-0.4,2.4h4.4l0.4-2.4c0-0.2,0.1-0.5,0.1-0.7
			C181.7,64.2,181.4,63.9,180.4,63.9z"/>
		<path class="st1" d="M189.4,61.5c0.2,0,0.3,0.1,0.3,0.4l-2.3,12.8c0,0.2-0.1,0.4-0.4,0.4h-1.6c-0.2,0-0.3-0.1-0.3-0.4l2.3-12.8
			c0-0.2,0.1-0.4,0.4-0.4H189.4z"/>
		<path class="st1" d="M194.2,61.5c0.2,0,0.3,0.1,0.3,0.4l-2.3,12.8c0,0.2-0.1,0.4-0.4,0.4h-1.6c-0.2,0-0.3-0.1-0.3-0.4l2.3-12.8
			c0-0.2,0.1-0.4,0.4-0.4H194.2z"/>
		<path class="st1" d="M203.7,69.5l-0.1,0.9c-0.1,0.3-0.2,0.4-0.4,0.4h-5.8c0,0.3-0.1,0.5-0.1,0.7c0,1,0.5,1.6,1.8,1.6
			c1.3,0,2.5-0.1,3.3-0.2c0.2,0,0.4,0,0.3,0.3l-0.2,1.2c-0.1,0.3-0.1,0.4-0.4,0.5c-1.2,0.2-2,0.3-3.6,0.3c-1.6,0-3.5-0.9-3.5-3.6
			c0-0.3,0-0.7,0.1-1.1l0.2-1.1c0.6-3.3,2.3-4.5,5.1-4.5c2.4,0,3.5,1.6,3.5,3.6C203.8,68.9,203.8,69.2,203.7,69.5z M200,66.9
			c-1.4,0-2.1,1-2.3,2.3h3.8c0-0.2,0.1-0.4,0.1-0.7C201.5,67.5,201,66.9,200,66.9z"/>
		<path class="st1" d="M212.6,65.3c0.2,0.1,0.3,0.1,0.2,0.4l-0.2,1c0,0.2-0.1,0.4-0.4,0.3c-0.5-0.1-1.8-0.2-2.8-0.2
			c-0.7,0-1.4,0.1-1.4,0.7c0,0.3,0.1,0.5,0.5,0.8l2.1,1.4c1.1,0.7,1.3,1.5,1.3,2.2c0,2.2-1.8,3.2-3.9,3.2c-0.6,0-2.1-0.1-3.2-0.4
			c-0.2-0.1-0.3-0.2-0.3-0.4l0.2-1.1c0-0.2,0.1-0.3,0.4-0.3c0.8,0.1,2.3,0.2,2.8,0.2c0.9,0,1.5-0.2,1.5-1c0-0.3-0.2-0.5-0.6-0.9
			l-1.9-1.3c-1-0.7-1.5-1.3-1.5-2.5c0-2.1,2-2.7,3.7-2.7C210.5,64.9,211.6,65,212.6,65.3z"/>
		<path class="st1" d="M227.3,69.5l-0.1,0.9c-0.1,0.3-0.2,0.4-0.4,0.4H221c0,0.3-0.1,0.5-0.1,0.7c0,1,0.5,1.6,1.8,1.6
			c1.3,0,2.5-0.1,3.3-0.2c0.2,0,0.4,0,0.3,0.3l-0.2,1.2c-0.1,0.3-0.1,0.4-0.4,0.5c-1.2,0.2-2,0.3-3.6,0.3c-1.6,0-3.5-0.9-3.5-3.6
			c0-0.3,0-0.7,0.1-1.1l0.2-1.1c0.6-3.3,2.3-4.5,5.1-4.5c2.4,0,3.5,1.6,3.5,3.6C227.4,68.9,227.4,69.2,227.3,69.5z M223.6,66.9
			c-1.4,0-2.1,1-2.3,2.3h3.8c0-0.2,0.1-0.4,0.1-0.7C225.1,67.5,224.5,66.9,223.6,66.9z"/>
		<path class="st1" d="M232.2,65c0.2,0,0.4,0.1,0.3,0.4l-1.6,9.3c0,0.2-0.1,0.4-0.4,0.4h-1.6c-0.2,0-0.3-0.1-0.3-0.4l1.6-9.3
			c0-0.2,0.2-0.4,0.4-0.4H232.2z M232.8,61.4c0.2,0,0.3,0.1,0.3,0.4l-0.3,1.6c0,0.2-0.2,0.4-0.4,0.4h-1.7c-0.2,0-0.4-0.2-0.3-0.4
			l0.3-1.6c0-0.2,0.2-0.4,0.4-0.4H232.8z"/>
		<path class="st1" d="M242.3,69l-1,5.7c0,0.2-0.1,0.4-0.4,0.4h-1.7c-0.2,0-0.3-0.2-0.3-0.4l1.1-6.1c0-0.2,0.1-0.4,0.1-0.7
			c0-0.6-0.2-1-1.1-1h-1c-1,0-1.3,0.4-1.5,1.7l-1.1,6.1c0,0.2-0.1,0.4-0.4,0.4h-1.7c-0.2,0-0.3-0.1-0.3-0.4l1.1-6.1
			c0.5-2.7,1.5-3.6,4.2-3.6h0.9c2.4,0,3.1,1.3,3.1,2.8C242.4,68.2,242.4,68.4,242.3,69z"/>
		<path class="st1" d="M250.6,61.5c0.3,0,0.3,0.1,0.3,0.3l-0.2,1c0,0.2-0.1,0.3-0.3,0.3h-1.5c-0.8,0-1.1,0.2-1.2,1.1l-0.2,0.9h2.5
			c0.2,0,0.4,0.1,0.3,0.4l-0.2,1.1c0,0.2-0.1,0.3-0.4,0.3h-2.5l-1.4,7.9c0,0.2-0.1,0.4-0.4,0.4h-1.6c-0.2,0-0.3-0.1-0.3-0.4
			l1.8-10.5c0.4-2.3,1.7-2.8,3.5-2.8C249.3,61.3,250.1,61.4,250.6,61.5z"/>
		<path class="st1" d="M259.8,65.8l-1.5,8.4c-0.1,0.3-0.1,0.4-0.6,0.5c-1.2,0.3-2.5,0.5-3.6,0.5c-2.4,0-3.5-1.4-3.5-3.4
			c0-0.3,0-0.7,0.1-1l0.2-1.4c0.5-3.1,2.2-4.4,5-4.4c1.1,0,2.4,0.2,3.5,0.5c0.3,0.1,0.4,0.2,0.4,0.3
			C259.8,65.7,259.8,65.8,259.8,65.8z M255.6,66.8c-1.5,0-2.1,1-2.4,2.5l-0.2,1.4c-0.1,0.4-0.1,0.7-0.1,1c0,1,0.4,1.5,1.6,1.5
			c0.6,0,1.4-0.1,1.7-0.1l1.1-6.2C256.9,66.9,256.2,66.8,255.6,66.8z"/>
		<path class="st1" d="M268.3,65.1c0.3,0.1,0.3,0.2,0.3,0.5l-0.2,1.2c0,0.2-0.1,0.3-0.4,0.3c-0.6-0.1-1.1-0.1-2.3-0.1
			c-0.8,0-1.8,0.5-2.1,2.3l-0.3,1.6c-0.1,0.3-0.1,0.6-0.1,0.9c0,1.2,0.7,1.4,1.4,1.4c1.2,0,1.7-0.1,2.3-0.1c0.3,0,0.4,0,0.3,0.3
			l-0.2,1.2c-0.1,0.3-0.1,0.4-0.4,0.5c-0.4,0.1-1.2,0.2-2.3,0.2c-2,0-3.4-1.4-3.4-3.4c0-0.3,0-0.6,0.1-0.9l0.3-1.6
			c0.6-3.4,2.5-4.3,4.8-4.3C267.1,64.9,267.9,65,268.3,65.1z"/>
		<path class="st1" d="M278.1,68.6l-1.1,6c-0.1,0.3-0.2,0.4-0.4,0.4H275c-0.2,0-0.3-0.1-0.3-0.4l1.1-6c0-0.2,0.1-0.5,0.1-0.7
			c0-0.8-0.4-1.1-1.6-1.1c-0.7,0-1.3,0.1-1.7,0.2l-1.4,7.6c0,0.2-0.1,0.4-0.4,0.4h-1.6c-0.2,0-0.3-0.1-0.3-0.4l2.3-12.8
			c0-0.2,0.1-0.4,0.4-0.4h1.6c0.2,0,0.4,0.1,0.3,0.4l-0.6,3.2c0.5-0.1,1.2-0.2,1.7-0.2c2.4,0,3.6,1.2,3.6,2.9
			C278.2,68.1,278.2,68.4,278.1,68.6z"/>
		<path class="st1" d="M288.6,61.9c0.3,0,0.3,0.1,0.3,0.3l-2.2,12.5c0,0.2-0.1,0.4-0.4,0.4h-1.8c-0.3,0-0.3-0.2-0.3-0.4l2.2-12.5
			c0-0.2,0.1-0.3,0.4-0.3H288.6z"/>
		<path class="st1" d="M298.3,69l-1,5.7c0,0.2-0.1,0.4-0.4,0.4h-1.7c-0.2,0-0.3-0.2-0.3-0.4l1.1-6.1c0-0.2,0.1-0.4,0.1-0.7
			c0-0.6-0.2-1-1.1-1h-1c-1,0-1.3,0.4-1.5,1.7l-1.1,6.1c0,0.2-0.1,0.4-0.4,0.4h-1.7c-0.2,0-0.3-0.1-0.3-0.4l1.1-6.1
			c0.5-2.7,1.5-3.6,4.2-3.6h0.9c2.4,0,3.1,1.3,3.1,2.8C298.4,68.2,298.4,68.4,298.3,69z"/>
		<path class="st1" d="M306,65c0.2,0,0.4,0.1,0.3,0.4l-0.2,1c0,0.2-0.1,0.4-0.4,0.4h-2.5l-1,5.7c0,0.1,0,0.2,0,0.3
			c0,0.4,0.3,0.5,1,0.5h1.4c0.3,0,0.4,0.1,0.3,0.3l-0.2,1.1c0,0.2-0.2,0.3-0.4,0.3c-0.4,0.1-1.3,0.1-2.1,0.1c-1.3,0-2.4-0.6-2.4-2
			c0-0.2,0-0.4,0.1-0.6l1.6-8.9c0-0.2,0.2-0.3,0.4-0.4l1.6-0.3c0.3-0.1,0.5,0.1,0.4,0.3l-0.3,1.7H306z"/>
		<path class="st1" d="M315.1,69.5l-0.1,0.9c-0.1,0.3-0.2,0.4-0.4,0.4h-5.8c0,0.3-0.1,0.5-0.1,0.7c0,1,0.5,1.6,1.8,1.6
			c1.3,0,2.5-0.1,3.3-0.2c0.2,0,0.4,0,0.3,0.3l-0.2,1.2c-0.1,0.3-0.1,0.4-0.4,0.5c-1.2,0.2-2,0.3-3.6,0.3c-1.6,0-3.5-0.9-3.5-3.6
			c0-0.3,0-0.7,0.1-1.1l0.2-1.1c0.6-3.3,2.3-4.5,5.1-4.5c2.4,0,3.5,1.6,3.5,3.6C315.2,68.9,315.2,69.2,315.1,69.5z M311.4,66.9
			c-1.4,0-2.1,1-2.3,2.3h3.8c0-0.2,0.1-0.4,0.1-0.7C312.9,67.5,312.4,66.9,311.4,66.9z"/>
		<path class="st1" d="M322.5,65.2l-0.2,1.3c0,0.2-0.2,0.3-0.6,0.3c-0.6,0-1.3,0-1.8,0.1l-1.3,7.7c0,0.2-0.2,0.4-0.4,0.4h-1.6
			c-0.2,0-0.3-0.1-0.3-0.3c0,0,0-0.1,0-0.1l1.5-8.7c0-0.2,0.3-0.4,0.6-0.5c1.2-0.4,2.2-0.5,3.7-0.5
			C322.2,64.9,322.5,64.9,322.5,65.2C322.5,65.2,322.5,65.2,322.5,65.2z"/>
		<path class="st1" d="M331.5,69l-1,5.7c0,0.2-0.1,0.4-0.4,0.4h-1.7c-0.2,0-0.3-0.2-0.3-0.4l1.1-6.1c0-0.2,0.1-0.4,0.1-0.7
			c0-0.6-0.2-1-1.1-1h-1c-1,0-1.3,0.4-1.5,1.7l-1.1,6.1c0,0.2-0.1,0.4-0.4,0.4h-1.7c-0.2,0-0.3-0.1-0.3-0.4l1.1-6.1
			c0.5-2.7,1.5-3.6,4.2-3.6h0.9c2.4,0,3.1,1.3,3.1,2.8C331.7,68.2,331.6,68.4,331.5,69z"/>
		<path class="st1" d="M341.8,69.5l-0.1,0.9c-0.1,0.3-0.2,0.4-0.4,0.4h-5.8c0,0.3-0.1,0.5-0.1,0.7c0,1,0.5,1.6,1.8,1.6
			c1.3,0,2.5-0.1,3.3-0.2c0.2,0,0.4,0,0.3,0.3l-0.2,1.2c-0.1,0.3-0.1,0.4-0.4,0.5c-1.2,0.2-2,0.3-3.6,0.3c-1.6,0-3.5-0.9-3.5-3.6
			c0-0.3,0-0.7,0.1-1.1l0.2-1.1c0.6-3.3,2.3-4.5,5.1-4.5c2.4,0,3.5,1.6,3.5,3.6C341.9,68.9,341.9,69.2,341.8,69.5z M338.1,66.9
			c-1.4,0-2.1,1-2.3,2.3h3.8c0-0.2,0.1-0.4,0.1-0.7C339.6,67.5,339.1,66.9,338.1,66.9z"/>
		<path class="st1" d="M349.4,65c0.2,0,0.4,0.1,0.3,0.4l-0.2,1c0,0.2-0.1,0.4-0.4,0.4h-2.5l-1,5.7c0,0.1,0,0.2,0,0.3
			c0,0.4,0.3,0.5,1,0.5h1.4c0.3,0,0.4,0.1,0.3,0.3l-0.2,1.1c0,0.2-0.2,0.3-0.4,0.3c-0.4,0.1-1.3,0.1-2.1,0.1c-1.3,0-2.4-0.6-2.4-2
			c0-0.2,0-0.4,0.1-0.6l1.6-8.9c0-0.2,0.2-0.3,0.4-0.4l1.6-0.3c0.3-0.1,0.5,0.1,0.4,0.3l-0.3,1.7H349.4z"/>
		<path class="st2" d="M116.4,31.1c0-5.2-4.2-6.8-8.6-6.8h-3c-6.6,0-10.2,1.4-11.5,8.9l-3.5,19.6c-0.1,0.4,0,0.8,0.6,0.8h6.4
			c0.6,0,0.8-0.4,0.9-0.8l1.5-8.6h7.1l-1.5,8.6c-0.1,0.4,0.1,0.8,0.6,0.8h6.3c0.7,0,0.9-0.4,1-0.8l3.5-19.6
			C116.3,32.4,116.4,31.7,116.4,31.1z M108.4,32.4c0,0.2,0,0.5-0.1,0.8l-0.8,4.6h-7.1l0.8-4.6c0.3-1.6,0.9-2,2.4-2h3
			C107.9,31.2,108.4,31.5,108.4,32.4z M135.4,47.8c0-0.4-0.3-0.7-0.7-0.7h-6.3c-1.1,0-1.6-0.3-1.6-1.2c0-0.2,0-0.5,0.1-0.7l3.5-19.7
			c0-0.5-0.2-0.8-0.6-0.8h-6.3c-0.4,0-0.9,0.4-1,0.8L119,45.2c-0.1,0.7-0.2,1.4-0.2,2c0,5.2,4.3,6.7,8.7,6.7c2.1,0,4.7-0.2,6.1-0.5
			c0.5-0.1,0.8-0.3,0.9-0.8l0.9-4.7V47.8z M155.7,47.8c0-0.4-0.3-0.7-0.7-0.7h-6.3c-1.1,0-1.6-0.3-1.6-1.2c0-0.2,0-0.5,0.1-0.7
			l3.5-19.7c0-0.5-0.2-0.8-0.6-0.8h-6.3c-0.4,0-0.9,0.4-1,0.8l-3.5,19.7c-0.1,0.7-0.2,1.4-0.2,2c0,5.2,4.3,6.7,8.7,6.7
			c2.1,0,4.7-0.2,6.1-0.5c0.5-0.1,0.8-0.3,0.9-0.8l0.9-4.7V47.8z M167.7,39.8c0-0.4-0.3-0.6-0.7-0.6h-7.5c-0.4,0-0.8,0.3-0.9,0.7
			l-0.7,4c0,0.5,0.3,0.7,0.7,0.7h7.5c0.4,0,0.8-0.3,0.9-0.7l0.7-4V39.8z M180.9,24.7h-6.4c-0.4,0-0.8,0.3-0.9,0.7l-4.8,27.4
			c-0.1,0.4,0.2,0.8,0.6,0.8h6.4c0.6,0,0.9-0.4,0.9-0.8l4.8-27.4C181.7,24.9,181.4,24.7,180.9,24.7z M208.6,32.5
			c0-6.2-4.2-8.2-11-8.2c-1.7,0-6.5,0.3-8.5,0.7c-1.9,0.3-2.5,0.7-2.9,2.8l-4.4,25c0,0.5,0.2,0.8,0.6,0.8h6.4c0.4,0,0.9-0.4,0.9-0.8
			l3.8-21.5c1.2-0.2,2.5-0.2,3.7-0.2c2.3,0,3.3,0.5,3.3,2.6c0,0.5-0.1,1.2-0.2,1.9l-3,17.2c0,0.5,0.2,0.8,0.6,0.8h6.4
			c0.4,0,0.9-0.4,0.9-0.8l3-17.2C208.5,34.5,208.6,33.4,208.6,32.5z M239.5,25.1c0-0.2-0.2-0.4-0.5-0.4h-7.7c-0.4,0-0.7,0.3-1,0.6
			L221,37.6l2.1-12.1c0-0.5-0.3-0.7-0.7-0.7h-6.3c-0.4,0-0.9,0.3-0.9,0.7l-4.8,27.4c0,0.5,0.3,0.8,0.7,0.8h6.3
			c0.4,0,0.9-0.4,0.9-0.8l2.2-12.6l4.9,12.7c0.1,0.3,0.2,0.7,0.7,0.7h7.6c0.4,0,0.6-0.2,0.6-0.5c0-0.1,0-0.2-0.1-0.3l-6-13.7
			l11-13.5C239.4,25.4,239.5,25.2,239.5,25.1z M255.8,47.8c0-0.4-0.3-0.7-0.7-0.7h-6.3c-1.1,0-1.6-0.3-1.6-1.2c0-0.2,0-0.5,0.1-0.7
			l3.5-19.7c0-0.5-0.2-0.8-0.6-0.8h-6.3c-0.4,0-0.9,0.4-1,0.8l-3.5,19.7c-0.1,0.7-0.2,1.4-0.2,2c0,5.2,4.3,6.7,8.7,6.7
			c2.1,0,4.7-0.2,6.1-0.5c0.5-0.1,0.8-0.3,0.9-0.8l0.9-4.7V47.8z M266.1,47.3c0-0.4-0.3-0.7-0.7-0.7h-5.6c-0.4,0-0.9,0.4-1,0.8
			l-0.9,5.4c0,0.5,0.3,0.8,0.7,0.8h5.6c0.4,0,0.9-0.4,1-0.8l0.9-5.4V47.3z M292,25.7c0-0.4-0.3-0.5-0.7-0.7c-1-0.4-3-0.7-5.4-0.7
			c-7.3,0-12.4,3-14.1,12.8l-0.7,4c-0.2,1.1-0.3,2.2-0.3,3.1c0,6.4,4.3,9.6,10.1,9.6c2.4,0,4.4-0.3,5.5-0.7c0.7-0.2,0.9-0.3,1-0.9
			l0.9-5c0-0.6-0.2-0.7-0.6-0.7c-1.7,0.2-3.4,0.3-5.6,0.3c-1.7,0-3.2-0.6-3.2-3.5c0-0.7,0.1-1.4,0.2-2.4l0.7-4
			c0.9-5.1,2.9-5.9,5-5.9c2.2,0,3.8,0.2,5.4,0.4c0.6,0,0.9-0.3,0.9-0.7l0.9-5V25.7z M316.8,33.9c0-6.7-4.6-9.6-10-9.6
			c-6.7,0-12.4,3-14.2,12.8l-0.7,4c-0.2,1.1-0.3,2.2-0.3,3.1c0,6.6,4.5,9.6,10,9.6c7.2,0,12.4-3.3,14.2-12.8l0.7-4
			C316.8,36,316.8,34.9,316.8,33.9z M308.8,34.7c0,0.7-0.1,1.5-0.3,2.4l-0.7,4c-0.8,4.2-2.2,5.8-4.9,5.8c-2.1,0-3.2-1-3.2-3.4
			c0-0.7,0.1-1.5,0.3-2.4l0.7-4c0.8-4.2,2.2-5.9,4.9-5.9C307.7,31.3,308.8,32.3,308.8,34.7z M354.3,32.8c0-6.9-4.9-8.5-14.7-8.5
			c-10.9,0-16.6,0.4-18.4,10.5l-3.1,17.9c-0.1,0.4,0.2,0.8,0.7,0.8h6.3c0.4,0,0.8-0.4,0.9-0.8l3-17.2c0.7-4,1.7-4.3,5.4-4.3
			l-3.8,21.5c-0.1,0.4,0.2,0.8,0.6,0.8h6.4c0.4,0,0.9-0.4,0.9-0.8l3.8-21.5c3,0,4.1,0.3,4.1,2.4c0,0.5-0.1,1.2-0.2,1.9l-3,17.2
			c-0.1,0.4,0.1,0.8,0.6,0.8h6.3c0.4,0,0.9-0.4,1-0.8l2.9-16.4C354.2,35,354.3,33.9,354.3,32.8z"/>
		<g>
			<path class="st0" d="M36.3,44.3c-1,0-1.7-0.7-1.7-1.7v-0.3l2.4-14c0.2-1.1,1.4-2,2.5-2h16.6l-3.1,18H36.3z"/>
			<path class="st3" d="M19.1,61.9c-2.9,0-4.9-2-4.9-4.9v-0.9l7-40.4c0.6-3.2,4.1-5.8,7.3-5.8h48.1L68.9,54l13.3,7.9L19.1,61.9z
				 M36.3,44.3c-1,0-1.7-0.7-1.7-1.7v-0.3l2.4-14c0.2-1.1,1.4-2,2.5-2h16.6l-3.1,18H36.3z"/>
		</g>
	</g>
</g>
</svg>
